# xmcd CD database file
#
# Track frame offsets:
#	187
#	11707
#	23807
#	39222
#	53315
#	62605
#	75820
#	86725
#	99892
#	112377
#	125585
#	137010
#
# Disc length: 1991 seconds
#
# Revision: 0
# Processed by: cddbd v1.5PL3 Copyright (c) Steve Scherf et al.
# Submitted via: CDex 1.50
#
DISCID=8907c50c
DTITLE=Delbert McClinton - Genuine Cowhide
DYEAR=1976
DGENRE=Blues
TTITLE0=It's Love Baby
TTITLE1=Please, Please, Please
TTITLE2=Lovey Dovey
TTITLE3=Before You Accuse Me
TTITLE4=Blue Monday
TTITLE5=I'm Dyin' as Fast as I Can
TTITLE6=Lipstick, Powder, and Paint
TTITLE7=Pledging My Love
TTITLE8=One Kiss Led to Another
TTITLE9=My Baby Comes to Me
TTITLE10=Special Love Song
TTITLE11=Let the Good Times Roll
EXTD=YEAR: 1976
EXTT0=
EXTT1=
EXTT2=
EXTT3=
EXTT4=
EXTT5=
EXTT6=
EXTT7=
EXTT8=
EXTT9=
EXTT10=
EXTT11=
PLAYORDER=
